<svg xmlns="http://www.w3.org/2000/svg" viewBox="0 0 32 32">
  <defs>
    <linearGradient id="g" x1="0%" y1="0%" x2="100%" y2="100%">
      <stop offset="0%" style="stop-color:#c084fc"/>
      <stop offset="100%" style="stop-color:#b07d97"/>
    </linearGradient>
  </defs>
  <!-- Солнце (центр) -->
  <circle cx="16" cy="16" r="3.5" fill="url(#g)"/>
  <!-- Лучи солнца -->
  <line x1="16" y1="10.5" x2="16" y2="9" stroke="url(#g)" stroke-width="0.8" stroke-linecap="round"/>
  <line x1="16" y1="21.5" x2="16" y2="23" stroke="url(#g)" stroke-width="0.8" stroke-linecap="round"/>
  <line x1="10.5" y1="16" x2="9" y2="16" stroke="url(#g)" stroke-width="0.8" stroke-linecap="round"/>
  <line x1="21.5" y1="16" x2="23" y2="16" stroke="url(#g)" stroke-width="0.8" stroke-linecap="round"/>
  <line x1="12.1" y1="12.1" x2="11" y2="11" stroke="url(#g)" stroke-width="0.7" stroke-linecap="round"/>
  <line x1="19.9" y1="12.1" x2="21" y2="11" stroke="url(#g)" stroke-width="0.7" stroke-linecap="round"/>
  <line x1="12.1" y1="19.9" x2="11" y2="21" stroke="url(#g)" stroke-width="0.7" stroke-linecap="round"/>
  <line x1="19.9" y1="19.9" x2="21" y2="21" stroke="url(#g)" stroke-width="0.7" stroke-linecap="round"/>
  <!-- Орбита 1 (Меркурий) -->
  <circle cx="16" cy="16" r="6.5" fill="none" stroke="url(#g)" stroke-width="0.4" opacity="0.3"/>
  <circle cx="22.5" cy="16" r="1" fill="url(#g)" opacity="0.7"/>
  <!-- Орбита 2 (Венера) -->
  <circle cx="16" cy="16" r="9" fill="none" stroke="url(#g)" stroke-width="0.4" opacity="0.25"/>
  <circle cx="16" cy="7" r="1.2" fill="url(#g)" opacity="0.8"/>
  <!-- Орбита 3 (Земля + Луна) -->
  <circle cx="16" cy="16" r="12" fill="none" stroke="url(#g)" stroke-width="0.4" opacity="0.2"/>
  <!-- Земля -->
  <circle cx="4" cy="16" r="1.5" fill="url(#g)" opacity="0.9"/>
  <!-- Луна у Земли -->
  <circle cx="5.8" cy="14.5" r="0.7" fill="url(#g)" opacity="0.5"/>
  <!-- Далёкая планета (Марс) -->
  <circle cx="26" cy="22" r="0.9" fill="url(#g)" opacity="0.5"/>
</svg>
